<svg id="Layer_02" data-name="Layer 02" xmlns="http://www.w3.org/2000/svg" viewBox="0 0 512 512"><defs><style>.cls-1{fill:none;stroke:#000;stroke-linecap:round;stroke-linejoin:round;stroke-width:20px;}</style></defs><path class="cls-1" d="M256,15.06c71.31,0,80,.28,108.09,1.56,27,1.24,43.64,5.63,56.72,10.72a105.93,105.93,0,0,1,38.68,25.17,105.93,105.93,0,0,1,25.17,38.68c5.09,13.08,9.48,29.72,10.72,56.72,1.28,28.08,1.56,36.78,1.56,108.09s-.28,80-1.56,108.09c-1.24,27-5.63,43.64-10.72,56.72a111.47,111.47,0,0,1-63.85,63.85c-13.08,5.09-29.72,9.48-56.72,10.72C336,496.66,327.31,497,256,497s-80-.29-108.09-1.57c-27-1.24-43.64-5.63-56.72-10.72a105.85,105.85,0,0,1-38.68-25.17,105.85,105.85,0,0,1-25.17-38.68c-5.09-13.08-9.48-29.72-10.72-56.72C15.34,336,15.06,327.31,15.06,256s.28-80,1.56-108.09c1.24-27,5.63-43.64,10.72-56.72A105.93,105.93,0,0,1,52.51,52.51,105.85,105.85,0,0,1,91.19,27.34c13.08-5.09,29.72-9.48,56.72-10.72C176,15.34,184.69,15.06,256,15.06Z"/><circle class="cls-1" cx="256" cy="256" r="112.12"/><path class="cls-1" d="M429.13,114.65a31.78,31.78,0,1,1-31.78-31.78A31.78,31.78,0,0,1,429.13,114.65Z"/></svg>