<svg id="Layer_01" data-name="Layer 01" xmlns="http://www.w3.org/2000/svg" viewBox="0 0 512 512"><defs><style>.cls-1{fill:none;stroke:#000;stroke-linecap:round;stroke-linejoin:round;stroke-width:20px;}</style></defs><path class="cls-1" d="M496.94,106.55a197.42,197.42,0,0,1-56.78,15.57,99.05,99.05,0,0,0,43.47-54.7,198,198,0,0,1-62.78,24,98.73,98.73,0,0,0-72.17-31.22c-63.83,0-110.73,59.56-96.31,121.38A280.65,280.65,0,0,1,48.61,78.28a99,99,0,0,0,30.58,132,98.4,98.4,0,0,1-44.76-12.37c-1.08,45.8,31.75,88.65,79.29,98.19a99,99,0,0,1-44.65,1.68,98.92,98.92,0,0,0,92.36,68.65,198.75,198.75,0,0,1-146.38,41,279.92,279.92,0,0,0,151.56,44.42c183.56,0,287.27-155,281-294.08A201,201,0,0,0,496.94,106.55Z"/></svg>